<svg width="134" height="40" viewBox="0 0 134 40" fill="none" xmlns="http://www.w3.org/2000/svg">
<rect x="0.5" y="0.5" width="132.333" height="39" rx="7.5" stroke="#FE6401"/>
<path d="M29.6675 9.28572C23.7501 9.28572 18.9532 14.0827 18.9532 20C18.9532 25.9173 23.7501 30.7143 29.6675 30.7143C35.5848 30.7143 40.3817 25.9173 40.3817 20C40.3817 14.0827 35.5848 9.28572 29.6675 9.28572Z" fill="#3B5998" stroke="white" stroke-width="1.42857"/>
<path d="M30.7096 25.8798V20.4392H32.2114L32.4105 18.5644H30.7096L30.7122 17.626C30.7122 17.1371 30.7586 16.875 31.461 16.875H32.3998V15H30.8978C29.0936 15 28.4586 15.9095 28.4586 17.439V18.5646H27.334V20.4395H28.4586V25.8798H30.7096Z" fill="white"/>
<path d="M44.667 9.28572C38.7496 9.28572 33.9527 14.0827 33.9527 20C33.9527 25.9173 38.7496 30.7143 44.667 30.7143C50.5843 30.7143 55.3812 25.9173 55.3812 20C55.3812 14.0827 50.5843 9.28572 44.667 9.28572Z" fill="#55ACEE" stroke="white" stroke-width="1.42857"/>
<path d="M44.3665 18.1281L44.3875 18.4741L44.0377 18.4318C42.7647 18.2694 41.6525 17.7185 40.7082 16.7935L40.2466 16.3345L40.1277 16.6734C39.8759 17.429 40.0367 18.227 40.5613 18.7637C40.8411 19.0603 40.7782 19.1026 40.2955 18.9261C40.1277 18.8696 39.9808 18.8272 39.9668 18.8484C39.9178 18.8978 40.0857 19.5405 40.2186 19.7947C40.4005 20.1478 40.7712 20.4938 41.1769 20.6986L41.5196 20.861L41.1139 20.8681C40.7222 20.8681 40.7082 20.8751 40.7502 21.0234C40.8901 21.4824 41.4427 21.9697 42.0582 22.1815L42.4919 22.3298L42.1142 22.5558C41.5546 22.8806 40.8971 23.0642 40.2396 23.0784C39.9248 23.0854 39.666 23.1137 39.666 23.1349C39.666 23.2055 40.5194 23.6009 41.016 23.7563C42.5059 24.2153 44.2756 24.0176 45.6046 23.2337C46.5489 22.6758 47.4932 21.5672 47.9338 20.4938C48.1717 19.9218 48.4095 18.8767 48.4095 18.3753C48.4095 18.0504 48.4305 18.0081 48.8222 17.6197C49.053 17.3937 49.2698 17.1465 49.3118 17.0759C49.3818 16.9418 49.3748 16.9418 49.018 17.0618C48.4235 17.2737 48.3395 17.2454 48.6333 16.9276C48.8502 16.7017 49.109 16.2921 49.109 16.172C49.109 16.1509 49.004 16.1862 48.8851 16.2497C48.7592 16.3203 48.4794 16.4263 48.2696 16.4898L47.8919 16.6099L47.5491 16.3768C47.3603 16.2497 47.0945 16.1085 46.9546 16.0661C46.5978 15.9672 46.0522 15.9814 45.7305 16.0944C44.8561 16.4121 44.3035 17.2313 44.3665 18.1281Z" fill="white"/>
<path d="M59.6675 30.7143C65.5848 30.7143 70.3817 25.9173 70.3817 20C70.3817 14.0827 65.5848 9.28572 59.6675 9.28572C53.7501 9.28572 48.9532 14.0827 48.9532 20C48.9532 25.9173 53.7501 30.7143 59.6675 30.7143Z" fill="#25D366" stroke="white" stroke-width="1.42857"/>
<path fill-rule="evenodd" clip-rule="evenodd" d="M59.9972 25.5639H59.9948C58.9996 25.5635 58.0217 25.3138 57.1532 24.8401L54.001 25.667L54.8446 22.5857C54.3242 21.6839 54.0504 20.6609 54.0508 19.6129C54.0521 16.3344 56.7196 13.667 59.9972 13.667C61.5879 13.6677 63.0809 14.2869 64.2035 15.4109C65.3262 16.5348 65.9441 18.0288 65.9435 19.6176C65.9422 22.8954 63.2757 25.5625 59.9972 25.5639ZM57.2995 23.7636L57.4799 23.8707C58.2388 24.321 59.1086 24.5592 59.9955 24.5596H59.9975C62.7215 24.5596 64.9386 22.3424 64.9397 19.6172C64.9402 18.2966 64.4266 17.0549 63.4935 16.1207C62.5604 15.1865 61.3195 14.6718 59.9994 14.6713C57.2732 14.6713 55.0561 16.8882 55.055 19.6132C55.0546 20.5471 55.3159 21.4566 55.8107 22.2435L55.9282 22.4304L55.4289 24.2542L57.2995 23.7636ZM62.7884 20.8979C62.892 20.948 62.962 20.9818 62.9919 21.0317C63.029 21.0936 63.029 21.3911 62.9053 21.7382C62.7814 22.0853 62.1878 22.402 61.9024 22.4447C61.6464 22.483 61.3225 22.4989 60.9666 22.3858C60.7508 22.3173 60.474 22.2259 60.1195 22.0728C58.7267 21.4714 57.7854 20.1214 57.6074 19.8662C57.595 19.8484 57.5863 19.8359 57.5814 19.8294L57.5802 19.8278C57.5016 19.7229 56.9747 19.0199 56.9747 18.2924C56.9747 17.608 57.3109 17.2493 57.4656 17.0841C57.4763 17.0728 57.486 17.0624 57.4947 17.0529C57.6309 16.9041 57.7919 16.867 57.8909 16.867C57.99 16.867 58.0891 16.8679 58.1757 16.8722C58.1864 16.8728 58.1975 16.8727 58.209 16.8726C58.2956 16.8721 58.4035 16.8715 58.51 17.1273C58.551 17.2257 58.6109 17.3717 58.6741 17.5256C58.802 17.8368 58.9432 18.1807 58.9681 18.2305C59.0052 18.3049 59.03 18.3916 58.9805 18.4908C58.973 18.5057 58.9662 18.5197 58.9596 18.5331C58.9224 18.6091 58.895 18.6649 58.8319 18.7386C58.8071 18.7676 58.7814 18.7989 58.7558 18.8301C58.7046 18.8924 58.6535 18.9546 58.609 18.9989C58.5346 19.073 58.4572 19.1534 58.5439 19.3022C58.6306 19.4509 58.9287 19.9374 59.3704 20.3314C59.8452 20.7549 60.2579 20.9339 60.4671 21.0247C60.5079 21.0424 60.541 21.0567 60.5653 21.0689C60.7138 21.1433 60.8005 21.1308 60.8871 21.0317C60.9738 20.9325 61.2586 20.5978 61.3576 20.4491C61.4566 20.3004 61.5557 20.3252 61.6919 20.3747C61.8281 20.4244 62.5586 20.7838 62.7072 20.8581C62.7362 20.8727 62.7633 20.8858 62.7884 20.8979Z" fill="#FDFDFD"/>
<path d="M84.6357 16.719C84.5797 16.817 84.519 16.8893 84.4537 16.936C84.393 16.978 84.316 16.999 84.2227 16.999C84.1247 16.999 84.0173 16.964 83.9007 16.894C83.7887 16.8193 83.6533 16.7377 83.4947 16.649C83.336 16.5603 83.1493 16.481 82.9347 16.411C82.7247 16.3363 82.475 16.299 82.1857 16.299C81.9243 16.299 81.6957 16.3317 81.4997 16.397C81.3037 16.4577 81.138 16.544 81.0027 16.656C80.872 16.768 80.774 16.9033 80.7087 17.062C80.6433 17.216 80.6107 17.3863 80.6107 17.573C80.6107 17.811 80.676 18.0093 80.8067 18.168C80.942 18.3267 81.1193 18.462 81.3387 18.574C81.558 18.686 81.8077 18.7863 82.0877 18.875C82.3677 18.9637 82.6547 19.0593 82.9487 19.162C83.2427 19.26 83.5297 19.3767 83.8097 19.512C84.0897 19.6427 84.3393 19.8107 84.5587 20.016C84.778 20.2167 84.953 20.464 85.0837 20.758C85.219 21.052 85.2867 21.409 85.2867 21.829C85.2867 22.2863 85.2073 22.7157 85.0487 23.117C84.8947 23.5137 84.666 23.8613 84.3627 24.16C84.064 24.454 83.6977 24.6873 83.2637 24.86C82.8297 25.028 82.3327 25.112 81.7727 25.112C81.4507 25.112 81.1333 25.0793 80.8207 25.014C80.508 24.9533 80.207 24.8647 79.9177 24.748C79.633 24.6313 79.3647 24.4913 79.1127 24.328C78.8607 24.1647 78.6367 23.9827 78.4407 23.782L78.9937 22.879C79.0403 22.8137 79.101 22.76 79.1757 22.718C79.2503 22.6713 79.3297 22.648 79.4137 22.648C79.5303 22.648 79.6563 22.697 79.7917 22.795C79.927 22.8883 80.088 22.9933 80.2747 23.11C80.4613 23.2267 80.6783 23.334 80.9257 23.432C81.1777 23.5253 81.4787 23.572 81.8287 23.572C82.3653 23.572 82.7807 23.446 83.0747 23.194C83.3687 22.9373 83.5157 22.571 83.5157 22.095C83.5157 21.829 83.448 21.612 83.3127 21.444C83.182 21.276 83.007 21.136 82.7877 21.024C82.5683 20.9073 82.3187 20.8093 82.0387 20.73C81.7587 20.6507 81.474 20.5643 81.1847 20.471C80.8953 20.3777 80.6107 20.2657 80.3307 20.135C80.0507 20.0043 79.801 19.834 79.5817 19.624C79.3623 19.414 79.185 19.1527 79.0497 18.84C78.919 18.5227 78.8537 18.133 78.8537 17.671C78.8537 17.3023 78.926 16.943 79.0707 16.593C79.22 16.243 79.4347 15.9327 79.7147 15.662C79.9947 15.3913 80.34 15.1743 80.7507 15.011C81.1613 14.8477 81.6327 14.766 82.1647 14.766C82.762 14.766 83.3127 14.8593 83.8167 15.046C84.3207 15.2327 84.75 15.494 85.1047 15.83L84.6357 16.719ZM88.2895 18.588C88.5695 18.3267 88.8775 18.1143 89.2135 17.951C89.5495 17.7877 89.9439 17.706 90.3965 17.706C90.7885 17.706 91.1362 17.7737 91.4395 17.909C91.7429 18.0397 91.9949 18.2263 92.1955 18.469C92.4009 18.707 92.5549 18.994 92.6575 19.33C92.7649 19.6613 92.8185 20.0277 92.8185 20.429V25H91.0895V20.429C91.0895 19.9903 90.9892 19.652 90.7885 19.414C90.5879 19.1713 90.2822 19.05 89.8715 19.05C89.5729 19.05 89.2929 19.1177 89.0315 19.253C88.7702 19.3883 88.5229 19.5727 88.2895 19.806V25H86.5605V14.598H88.2895V18.588ZM98.2569 21.934C97.7576 21.9573 97.3376 22.0017 96.9969 22.067C96.6562 22.1277 96.3832 22.207 96.1779 22.305C95.9726 22.403 95.8256 22.5173 95.7369 22.648C95.6482 22.7787 95.6039 22.921 95.6039 23.075C95.6039 23.3783 95.6926 23.5953 95.8699 23.726C96.0519 23.8567 96.2876 23.922 96.5769 23.922C96.9316 23.922 97.2372 23.859 97.4939 23.733C97.7552 23.6023 98.0096 23.4063 98.2569 23.145V21.934ZM94.2949 18.819C95.1209 18.063 96.1149 17.685 97.2769 17.685C97.6969 17.685 98.0726 17.755 98.4039 17.895C98.7352 18.0303 99.0152 18.2217 99.2439 18.469C99.4726 18.7117 99.6452 19.0033 99.7619 19.344C99.8832 19.6847 99.9439 20.058 99.9439 20.464V25H99.1599C98.9966 25 98.8706 24.9767 98.7819 24.93C98.6932 24.8787 98.6232 24.7783 98.5719 24.629L98.4179 24.111C98.2359 24.2743 98.0586 24.419 97.8859 24.545C97.7132 24.6663 97.5336 24.769 97.3469 24.853C97.1602 24.937 96.9596 25 96.7449 25.042C96.5349 25.0887 96.3016 25.112 96.0449 25.112C95.7416 25.112 95.4616 25.0723 95.2049 24.993C94.9482 24.909 94.7266 24.7853 94.5399 24.622C94.3532 24.4587 94.2086 24.2557 94.1059 24.013C94.0032 23.7703 93.9519 23.488 93.9519 23.166C93.9519 22.984 93.9822 22.8043 94.0429 22.627C94.1036 22.445 94.2016 22.2723 94.3369 22.109C94.4769 21.9457 94.6566 21.7917 94.8759 21.647C95.0952 21.5023 95.3636 21.3763 95.6809 21.269C96.0029 21.1617 96.3762 21.0753 96.8009 21.01C97.2256 20.94 97.7109 20.898 98.2569 20.884V20.464C98.2569 19.9833 98.1542 19.6287 97.9489 19.4C97.7436 19.1667 97.4472 19.05 97.0599 19.05C96.7799 19.05 96.5466 19.0827 96.3599 19.148C96.1779 19.2133 96.0169 19.288 95.8769 19.372C95.7369 19.4513 95.6086 19.5237 95.4919 19.589C95.3799 19.6543 95.2539 19.687 95.1139 19.687C94.9926 19.687 94.8899 19.6567 94.8059 19.596C94.7219 19.5307 94.6542 19.456 94.6029 19.372L94.2949 18.819ZM103.203 19.064C103.427 18.6347 103.693 18.2987 104.001 18.056C104.309 17.8087 104.673 17.685 105.093 17.685C105.425 17.685 105.691 17.7573 105.891 17.902L105.779 19.197C105.756 19.281 105.721 19.3417 105.674 19.379C105.632 19.4117 105.574 19.428 105.499 19.428C105.429 19.428 105.324 19.4163 105.184 19.393C105.049 19.3697 104.916 19.358 104.785 19.358C104.594 19.358 104.424 19.386 104.274 19.442C104.125 19.498 103.99 19.5797 103.868 19.687C103.752 19.7897 103.647 19.9157 103.553 20.065C103.465 20.2143 103.381 20.3847 103.301 20.576V25H101.572V17.818H102.587C102.765 17.818 102.888 17.8507 102.958 17.916C103.028 17.9767 103.075 18.0887 103.098 18.252L103.203 19.064ZM111.217 20.583C111.217 20.359 111.184 20.149 111.119 19.953C111.058 19.7523 110.965 19.5773 110.839 19.428C110.713 19.2787 110.552 19.162 110.356 19.078C110.165 18.9893 109.941 18.945 109.684 18.945C109.185 18.945 108.79 19.0873 108.501 19.372C108.216 19.6567 108.034 20.0603 107.955 20.583H111.217ZM107.92 21.626C107.948 21.9947 108.013 22.3143 108.116 22.585C108.219 22.851 108.354 23.0727 108.522 23.25C108.69 23.4227 108.888 23.5533 109.117 23.642C109.35 23.726 109.607 23.768 109.887 23.768C110.167 23.768 110.407 23.7353 110.608 23.67C110.813 23.6047 110.991 23.5323 111.14 23.453C111.294 23.3737 111.427 23.3013 111.539 23.236C111.656 23.1707 111.768 23.138 111.875 23.138C112.02 23.138 112.127 23.1917 112.197 23.299L112.694 23.929C112.503 24.153 112.288 24.342 112.05 24.496C111.812 24.6453 111.562 24.7667 111.301 24.86C111.044 24.9487 110.781 25.0117 110.51 25.049C110.244 25.0863 109.985 25.105 109.733 25.105C109.234 25.105 108.769 25.0233 108.34 24.86C107.911 24.692 107.537 24.447 107.22 24.125C106.903 23.7983 106.653 23.397 106.471 22.921C106.289 22.4403 106.198 21.885 106.198 21.255C106.198 20.765 106.277 20.3053 106.436 19.876C106.595 19.442 106.821 19.0663 107.115 18.749C107.414 18.427 107.775 18.1727 108.2 17.986C108.629 17.7993 109.112 17.706 109.649 17.706C110.102 17.706 110.519 17.7783 110.902 17.923C111.285 18.0677 111.614 18.28 111.889 18.56C112.164 18.8353 112.379 19.176 112.533 19.582C112.692 19.9833 112.771 20.443 112.771 20.961C112.771 21.2223 112.743 21.3997 112.687 21.493C112.631 21.5817 112.524 21.626 112.365 21.626H107.92Z" fill="#FE6401"/>
</svg>
